<svg xmlns="http://www.w3.org/2000/svg" width="48" height="48"><g fill="none" fill-rule="evenodd"><rect width="48" height="48" id="frame" fill="#000" rx="9"/><path fill="#FFF" id="m-frame" fill-opacity=".5" fill-rule="nonzero" d="M14.182 38H8.455A2.454 2.454 0 0 1 6 35.546V14.688c0-3.035 3.46-4.765 5.89-2.945l2.292 1.718V38ZM42 35.546A2.454 2.454 0 0 1 39.545 38h-5.727V13.46l2.291-1.717c2.426-1.82 5.891-.09 5.891 2.945ZM14.182 24.094V13.461L24 20.823l9.818-7.362v10.633L24 31.456"/><g fill="#FFF" fill-rule="nonzero"><path fill-opacity=".1" d="M14.182 38V24.094L6 17.96v17.586C6 36.904 7.1 38 8.455 38h5.727Z"/><path fill-opacity=".4" d="M33.818 38h5.727C40.904 38 42 36.9 42 35.546V17.96l-8.182 6.134"/><path fill-opacity=".2" d="M33.818 13.46v10.634L42 17.96v-3.272c0-3.035-3.465-4.765-5.89-2.945"/><path fill-opacity=".4" d="M14.182 24.094V13.461L24 20.823l9.818-7.362v10.633L24 31.456"/><path fill-opacity=".6" d="M6 14.688v3.272l8.182 6.134V13.461l-2.291-1.718C9.46 9.923 6 11.653 6 14.688"/></g></g></svg>